<svg viewBox="0 0 100 100" xmlns="http://www.w3.org/2000/svg">
  <defs>
    <mask id="m17-badge-shield" maskUnits="userSpaceOnUse" x="0" y="0" width="100" height="100">
      <rect width="100" height="100" fill="white"/>
      <g fill="black">
        <rect x="47" y="35" width="6" height="20" rx="3"/>
        <rect x="37" y="42" width="20" height="6" rx="3"/>
      </g>
    </mask>
  </defs>
  <g fill="currentColor">
    <ellipse cx="50" cy="32" rx="28" ry="6"/>
    <path d="M 22 38 C 22 60 34 75 50 75 C 66 75 78 60 78 38 Z"/>
  </g>
  <g transform="translate(57.5,58.32) scale(0.41)">
    <path fill="currentColor" mask="url(#m17-badge-shield)"
          d="M 50 6 L 25 17 C 22.5 18.1 21 20.5 21 23.2 L 21 42
             C 21 63 32 80 50 90 C 68 80 79 63 79 42 L 79 23.2
             C 79 20.5 77.5 18.1 75 17 Z"/>
  </g>
</svg>
